<mxfile host="app.diagrams.net" modified="2023-07-16T12:17:09.956Z" agent="Mozilla/5.0 (Windows NT 10.0; Win64; x64) AppleWebKit/537.36 (KHTML, like Gecko) Chrome/114.0.0.0 Safari/537.36" version="21.6.2" etag="6iMX5DKsVptu7_1rtSly" type="github">
  <diagram name="第 1 页" id="5GzpxHSXPJLODdyHJnse">
    <mxGraphModel>
      <root>
        <mxCell id="0" />
        <mxCell id="1" parent="0" />
      </root>
    </mxGraphModel>
  </diagram>
</mxfile>
